<?xml version="1.0" encoding="utf-8"?>
<!-- Generator: Adobe Illustrator 20.0.0, SVG Export Plug-In . SVG Version: 6.00 Build 0)  -->
<svg version="1.1" id="Layer_1" xmlns="http://www.w3.org/2000/svg" xmlns:xlink="http://www.w3.org/1999/xlink" x="0px" y="0px"
	 viewBox="0 0 612 267.2" style="enable-background:new 0 0 612 267.2;" xml:space="preserve">
<style type="text/css">
	.st0{fill:url(#SVGID_1_);}
	.st1{fill:none;}
	.st2{fill:#BE202E;}
	.st3{opacity:0.35;fill:#BE202E;enable-background:new    ;}
	.st4{fill:url(#SVGID_2_);}
	.st5{fill:url(#SVGID_3_);}
	.st6{fill:url(#SVGID_4_);}
	.st7{fill:url(#SVGID_5_);}
	.st8{fill:url(#SVGID_6_);}
	.st9{fill:url(#SVGID_7_);}
	.st10{fill:url(#SVGID_8_);}
	.st11{fill:url(#SVGID_9_);}
	.st12{fill:url(#SVGID_10_);}
	.st13{fill:#4A659B;}
	.st14{fill:#617CBE;}
	.st15{fill:#07090D;stroke:#FFFFFF;stroke-width:2;stroke-miterlimit:10;}
	.st16{fill:#000207;stroke:#FFFFFF;stroke-width:2;stroke-miterlimit:10;}
</style>
<linearGradient id="SVGID_1_" gradientUnits="userSpaceOnUse" x1="-1705.5642" y1="-6990.7759" x2="-1622.0842" y2="-6893.1606" gradientTransform="matrix(0.9397 0.342 0.342 -0.9397 4534.4082 -5734.2676)">
	<stop  offset="0" style="stop-color:#F69923"/>
	<stop  offset="0.3123" style="stop-color:#F79A23"/>
	<stop  offset="0.8383" style="stop-color:#E97826"/>
</linearGradient>
<path class="st0" d="M608.8,228.9c0,0-2.7-20.8-32.8-41.8c-18,12.7-39.3,29.1-52.2,40.7c32.3,6.8,50.5,8.2,56.4,8.5
	c0.7,0,1.4,0,2.1,0.1c0,0-0.7,0-2.1-0.1c-17.8-0.6-37.1-2.9-57.5-6.5l10.6,34.5c28.9,2.9,50.7,2.9,61.1,0.3
	C615.9,259.1,608.8,228.9,608.8,228.9z"/>
<path class="st1" d="M443.6,157.7c0.1-0.1,0.3-0.1,0.4-0.2l1.9-1.5c-0.1,0.1-0.2,0.1-0.3,0.2C445,156.7,444.3,157.2,443.6,157.7z"/>
<path class="st1" d="M389.5,130.5c1.2-0.9,2.3-1.7,3.5-2.5C391.9,128.8,390.7,129.6,389.5,130.5z"/>
<path class="st1" d="M190.5,107c-0.2-0.1-0.5-0.2-0.7-0.3l-1.8,1.5l1.8,5.5c7.6,3.5,15.3,6.9,23.1,10.4c2.2,1,4.4,1.9,6.6,2.9
	c9.7,4.3,19.6,8.6,29.7,12.9c9.6,4.1,19.3,8.2,29.2,12.2c9.8,4.1,19.7,8.1,29.7,12c10.2,4,20.3,8,30.6,11.8
	c10.1,3.8,20.2,7.5,30.4,11.1c3.6,1.3,7.3,2.6,10.9,3.8c6.3,2.2,12.6,4.3,18.8,6.4c0.3,0.1,0.7,0.2,1,0.3l-1.1-3.5l1.6-1.3
	c-0.2-0.1-0.4-0.2-0.7-0.2c-1.4-0.5-2.7-0.9-4.1-1.4c-4.1-1.4-8.3-2.9-12.6-4.4c-4.6-1.6-9.3-3.3-14.1-5.1c-2.4-0.9-4.8-1.8-7.3-2.7
	c-7.4-2.7-15-5.6-22.7-8.6c-9.6-3.7-19.4-7.6-29.6-11.7c-9.7-3.9-19.7-8-30-12.3c-9.7-4.1-19.8-8.4-30-12.9
	c-9.1-4-18.5-8.1-28.1-12.5c-0.4-0.2-0.9-0.4-1.4-0.6C210.1,116,200.4,111.5,190.5,107z"/>
<path class="st1" d="M388.7,131.1C388.7,131.1,388.7,131.1,388.7,131.1L388.7,131.1C388.7,131.1,388.7,131.1,388.7,131.1z"/>
<path class="st2" d="M362.2,117.2c-0.9,0.7-1.9,1.3-2.8,2c0,0,0,0,0,0c1.9-1.3,3.7-2.6,5.5-3.9C364.1,116,363.2,116.6,362.2,117.2z"
	/>
<path class="st3" d="M362.2,117.2c-0.9,0.7-1.9,1.3-2.8,2c0,0,0,0,0,0c1.9-1.3,3.7-2.6,5.5-3.9C364.1,116,363.2,116.6,362.2,117.2z"
	/>
<path class="st2" d="M388.7,131.1L388.7,131.1c1.5-1,2.9-2.1,4.4-3.1c-1.2,0.8-2.4,1.6-3.5,2.5C389.3,130.7,389,130.9,388.7,131.1
	C388.7,131.1,388.7,131.1,388.7,131.1C388.7,131.1,388.7,131.1,388.7,131.1L388.7,131.1z"/>
<path class="st3" d="M388.7,131.1L388.7,131.1c1.5-1,2.9-2.1,4.4-3.1c-1.2,0.8-2.4,1.6-3.5,2.5C389.3,130.7,389,130.9,388.7,131.1
	C388.7,131.1,388.7,131.1,388.7,131.1C388.7,131.1,388.7,131.1,388.7,131.1L388.7,131.1z"/>
<linearGradient id="SVGID_2_" gradientUnits="userSpaceOnUse" x1="-2323.4031" y1="-7001.561" x2="-1727.8171" y2="-7001.561" gradientTransform="matrix(0.9397 0.342 0.342 -0.9397 4534.4082 -5734.2676)">
	<stop  offset="0.3233" style="stop-color:#9E2064"/>
	<stop  offset="0.6302" style="stop-color:#C92037"/>
	<stop  offset="0.7514" style="stop-color:#CD2335"/>
	<stop  offset="1" style="stop-color:#E97826"/>
</linearGradient>
<path class="st4" d="M399.8,197.4l15.2,46.2c0.3,0.1,0.7,0.2,1,0.2c9,2.1,17.9,4.1,26.6,5.9c10.2,2.1,20.3,4.1,30,5.8
	c10.5,1.9,20.6,3.5,30.3,4.9c8.6,1.2,16.8,2.3,24.5,3.1c2.1,0.2,4.1,0.4,6.1,0.6l-10.6-34.5c-9.6-1.7-19.5-3.7-29.6-6
	c-0.6-0.1-1.2-0.3-1.8-0.4c-10.2-2.3-20.6-4.9-31.2-7.8c-10.2-2.7-20.5-5.7-30.9-8.8C419.5,203.8,409.6,200.7,399.8,197.4z"/>
<linearGradient id="SVGID_3_" gradientUnits="userSpaceOnUse" x1="-2251.5078" y1="-6941.8813" x2="-1896.5966" y2="-6941.8813" gradientTransform="matrix(0.9397 0.342 0.342 -0.9397 4534.4082 -5734.2676)">
	<stop  offset="0" style="stop-color:#282662"/>
	<stop  offset="9.548389e-02" style="stop-color:#662E8D"/>
	<stop  offset="0.7882" style="stop-color:#9F2064"/>
	<stop  offset="0.9487" style="stop-color:#CD2032"/>
</linearGradient>
<path class="st5" d="M189.8,106.7l13.9-11.2c13.7-19.8,33.7-31.7,61.5-31.3c-4.8-1.6-9.4-2.9-13.7-3.9c-18.1-4.2-32.8-3.1-55.5,5.6
	c0,0-0.1,0-0.1,0c0,0,0.1,0,0.1,0c10.1-11.3,18.2-14.5,28.6-13.2c-2.4-0.9-4.7-1.6-7.1-2.2c-26.6-6.5-51.7,7.3-73.3,30.9
	c0.4-9.8-3-18.5-9.1-25.3c2.8,9.7,4.6,18.9,2.1,25.6c10.9,5.3,15.7,7.7,21,10.3c1.1,0.5,2.3,1.1,3.4,1.6c0.1,0.1,0.2,0.1,0.3,0.2
	c8,3.8,15.8,7.5,23.5,11.1C186.9,105.3,188.4,106,189.8,106.7z"/>
<linearGradient id="SVGID_4_" gradientUnits="userSpaceOnUse" x1="-2289.9517" y1="-7007.1191" x2="-1694.3658" y2="-7007.1191" gradientTransform="matrix(0.9397 0.342 0.342 -0.9397 4534.4082 -5734.2676)">
	<stop  offset="0.3233" style="stop-color:#9E2064"/>
	<stop  offset="0.6302" style="stop-color:#C92037"/>
	<stop  offset="0.7514" style="stop-color:#CD2335"/>
	<stop  offset="1" style="stop-color:#E97826"/>
</linearGradient>
<path class="st6" d="M212.9,124c-7.9-3.5-15.6-7-23.1-10.4l15.3,46.5c9.7,6.4,19.8,12.6,30.3,18.4c4.4,2.5,8.9,4.9,13.5,7.3
	c5.4,2.7,11,5.5,17,8.3c9.1,4.2,18.8,8.5,29.3,12.7c9.2,3.7,19,7.4,29.4,11c1.6,0.6,3.3,1.1,5,1.7c8.3,2.8,16.6,5.5,24.9,8
	c9.9,3,19.8,5.9,29.6,8.5c9.7,2.6,19.3,5.1,28.9,7.4c0.7,0.1,1.3,0.3,2,0.5l-15.2-46.2c-0.3-0.1-0.7-0.2-1-0.3
	c-6.3-2.1-12.6-4.2-18.8-6.4c-3.6-1.2-7.3-2.5-10.9-3.8c-10.1-3.6-20.2-7.3-30.4-11.1c-10.2-3.9-20.4-7.8-30.6-11.8
	c-10-3.9-19.9-8-29.7-12c-9.8-4-19.6-8.1-29.2-12.2c-10-4.3-19.9-8.6-29.7-12.9C217.3,125.9,215.1,125,212.9,124z"/>
<linearGradient id="SVGID_5_" gradientUnits="userSpaceOnUse" x1="-2246.5151" y1="-6999.0557" x2="-1933.5167" y2="-6999.0557" gradientTransform="matrix(0.9397 0.342 0.342 -0.9397 4534.4082 -5734.2676)">
	<stop  offset="0" style="stop-color:#282662"/>
	<stop  offset="9.548389e-02" style="stop-color:#662E8D"/>
	<stop  offset="0.7882" style="stop-color:#9F2064"/>
	<stop  offset="0.9487" style="stop-color:#CD2032"/>
</linearGradient>
<path class="st7" d="M205,160l-15.2-46.4c0,0-0.1,0-0.1-0.1c-1.9-0.9-3.8-1.7-5.7-2.6c-8.3-3.8-16.4-7.5-24.3-11.3
	c-0.6-0.3-1.2-0.6-1.8-0.9c-2.2-1-4.3-2-6.5-3.1C76.3,60.3,21.5,30.8,13.2,26.3c-4.1-1.9-8.3-2.1-12.5,0.2
	c46.1,24.7,90.2,47.4,131.1,66.9c-5.2,8.3-16.5,15.8-32.9,22.7c14-2,27.1-4.6,35.1-11.8c-1.9,3-6,11.3-6.6,27.1
	c5-10.8,10.4-19.2,16.4-23.2c12.2,14.2,18.5,34.8,22.7,57.7c0.1,0.1,5.5-20.6,2.5-33.3c0.4,0.3,0.7,0.6,1.1,1
	c10.5,9.1,21.7,17.5,33.5,25.4C204.1,159.4,204.6,159.7,205,160z"/>
<linearGradient id="SVGID_6_" gradientUnits="userSpaceOnUse" x1="-2289.9517" y1="-6945.4839" x2="-1694.3658" y2="-6945.4839" gradientTransform="matrix(0.9397 0.342 0.342 -0.9397 4534.4082 -5734.2676)">
	<stop  offset="0.3233" style="stop-color:#9E2064"/>
	<stop  offset="0.6302" style="stop-color:#C92037"/>
	<stop  offset="0.7514" style="stop-color:#CD2335"/>
	<stop  offset="1" style="stop-color:#E97826"/>
</linearGradient>
<path class="st8" d="M400.2,192.7l43.8-35.2c-0.1,0.1-0.3,0.1-0.4,0.2c0.7-0.5,1.4-1,2.1-1.5c0.1-0.1,0.2-0.1,0.3-0.2l12.8-10.3
	L445.9,156c6.9-4.8,16.5-9.7,23.2-11.4c1-0.2,1.9-0.4,2.7-0.5l0,0l0,0c-1.2-0.8-2.8-1.9-5-3.2c-1.5-0.8-3.2-1.7-5.2-2.7
	c-0.7-0.3-1.3-0.7-2.1-1c-1.8-0.9-3.8-1.7-5.9-2.7c-4.3-1.8-9.4-3.8-15.3-5.8c-1.3-0.4-2.6-0.9-4-1.3c-1-0.3-2-0.5-2.9-0.7
	c-3.2-0.7-6.3-1.2-9.3-1.5c-1.3-0.1-2.6-0.2-3.9-0.2c-2-0.1-4,0-6.1,0.1c-1.3,0.1-2.6,0.2-4,0.4c-6.2,0.9-12.6,2.7-19.5,5.5l0,0l0,0
	c0,0,0,0,0,0l0,0l0,0c0.3-0.2,0.6-0.4,0.9-0.6c1.2-0.9,2.3-1.7,3.5-2.5c8.8-5.6,18-8.3,24.3-9.5c-19.2-6.3-38.4-7.9-57.8,0.7
	c0,0,0,0,0,0l0,0l0,0c0.9-0.7,1.8-1.4,2.8-2c0.9-0.7,1.9-1.3,2.8-1.9c5.3-3.4,10.6-6.1,15.8-7.7c-11-5.6-21.4-10.4-31.3-14.5
	c-11.4-4.7-22.2-8.5-32.4-11.4c-13.8-3.8-26.8-6-39.1-6.4c-26.8-1-58,7.8-74.9,21c0.2-0.3,0.4-0.6,0.6-0.9l-13.9,11.2
	c0.2,0.1,0.5,0.2,0.7,0.3c9.9,4.6,19.6,9.1,29.1,13.3c0.4,0.2,0.9,0.4,1.4,0.6c9.6,4.3,18.9,8.5,28.1,12.5
	c10.3,4.5,20.3,8.8,30,12.9c10.3,4.3,20.3,8.4,30,12.3c10.2,4.1,20.1,8,29.6,11.7c7.8,3,15.3,5.9,22.7,8.6c2.5,0.9,4.9,1.8,7.3,2.7
	c4.8,1.7,9.5,3.4,14.1,5.1c4.3,1.5,8.5,3,12.6,4.4c1.4,0.5,2.7,1,4.1,1.4C399.8,192.5,400,192.6,400.2,192.7z"/>
<linearGradient id="SVGID_7_" gradientUnits="userSpaceOnUse" x1="-2326.8979" y1="-6948.5581" x2="-1731.312" y2="-6948.5581" gradientTransform="matrix(0.9397 0.342 0.342 -0.9397 4534.4082 -5734.2676)">
	<stop  offset="0.3233" style="stop-color:#9E2064"/>
	<stop  offset="0.6302" style="stop-color:#C92037"/>
	<stop  offset="0.7514" style="stop-color:#CD2335"/>
	<stop  offset="1" style="stop-color:#E97826"/>
</linearGradient>
<path class="st9" d="M576,187.1c-2.9-2.1-6.1-4.1-9.5-6.1c-3.9-2.3-8.7-4.6-13.9-7c-8.3-3.7-18-7.3-28.1-10.5
	c-10.5-3.4-21.4-6.4-31.8-8.6c-3.4-0.8-6.7-1.4-9.9-2c-11.9-1.9-21.9-1.6-38.6,4.6l-43.8,35.2c10.5,3.6,20.5,6.9,30,9.9
	c10.9,3.5,21.2,6.6,30.8,9.4c11.2,3.2,21.6,6,31.1,8.5c0.6,0.1,1.2,0.3,1.7,0.4c11.1,2.8,21,5.1,29.9,7
	C536.7,216.2,558,199.8,576,187.1z"/>
<path class="st2" d="M359.5,119.3L359.5,119.3c0.9-0.7,1.8-1.4,2.8-2C361.3,117.9,360.4,118.6,359.5,119.3z"/>
<path class="st3" d="M359.5,119.3L359.5,119.3c0.9-0.7,1.8-1.4,2.8-2C361.3,117.9,360.4,118.6,359.5,119.3z"/>
<linearGradient id="SVGID_8_" gradientUnits="userSpaceOnUse" x1="-2289.9517" y1="-6927.1465" x2="-1694.366" y2="-6927.1465" gradientTransform="matrix(0.9397 0.342 0.342 -0.9397 4534.4082 -5734.2676)">
	<stop  offset="0.3233" style="stop-color:#9E2064"/>
	<stop  offset="0.6302" style="stop-color:#C92037"/>
	<stop  offset="0.7514" style="stop-color:#CD2335"/>
	<stop  offset="1" style="stop-color:#E97826"/>
</linearGradient>
<path class="st10" d="M359.5,119.3L359.5,119.3c0.9-0.7,1.8-1.4,2.8-2C361.3,117.9,360.4,118.6,359.5,119.3z"/>
<path class="st2" d="M388.7,131.1c0.3-0.2,0.6-0.4,0.9-0.6C389.3,130.7,389,130.9,388.7,131.1L388.7,131.1z"/>
<path class="st3" d="M388.7,131.1c0.3-0.2,0.6-0.4,0.9-0.6C389.3,130.7,389,130.9,388.7,131.1L388.7,131.1z"/>
<linearGradient id="SVGID_9_" gradientUnits="userSpaceOnUse" x1="-2289.9517" y1="-6929.2495" x2="-1694.366" y2="-6929.2495" gradientTransform="matrix(0.9397 0.342 0.342 -0.9397 4534.4082 -5734.2676)">
	<stop  offset="0.3233" style="stop-color:#9E2064"/>
	<stop  offset="0.6302" style="stop-color:#C92037"/>
	<stop  offset="0.7514" style="stop-color:#CD2335"/>
	<stop  offset="1" style="stop-color:#E97826"/>
</linearGradient>
<path class="st11" d="M388.7,131.1c0.3-0.2,0.6-0.4,0.9-0.6C389.3,130.7,389,130.9,388.7,131.1L388.7,131.1z"/>
<path class="st2" d="M388.7,131.1L388.7,131.1L388.7,131.1L388.7,131.1L388.7,131.1L388.7,131.1z"/>
<path class="st3" d="M388.7,131.1L388.7,131.1L388.7,131.1L388.7,131.1L388.7,131.1L388.7,131.1z"/>
<linearGradient id="SVGID_10_" gradientUnits="userSpaceOnUse" x1="-1889.5387" y1="-6929.6685" x2="-1889.5387" y2="-6929.6685" gradientTransform="matrix(0.9397 0.342 0.342 -0.9397 4534.4082 -5734.2676)">
	<stop  offset="0.3233" style="stop-color:#9E2064"/>
	<stop  offset="0.6302" style="stop-color:#C92037"/>
	<stop  offset="0.7514" style="stop-color:#CD2335"/>
	<stop  offset="1" style="stop-color:#E97826"/>
</linearGradient>
<path class="st12" d="M388.7,131.1L388.7,131.1L388.7,131.1L388.7,131.1L388.7,131.1L388.7,131.1z"/>
<ellipse class="st13" cx="419.5" cy="82.6" rx="154.4" ry="80.1"/>
<ellipse class="st14" cx="419.1" cy="81.6" rx="147.9" ry="75.1"/>
<path class="st15" d="M400,72.5C400,50,378,50,378,50h-38.5l-17,80.5h18L345,109l19.5,0.5C385,107.8,391,97,391,97
	C399.7,88,400,72.5,400,72.5z M375.5,86.5c0,0-3.5,5.8-10,6H351l5.5-28l16,0.5c0,0,7,0,6.5,7.5C379,72.5,379.2,82.5,375.5,86.5z"/>
<path class="st15" d="M529.3,75c0-22.5-22-22.5-22-22.5h-38.5l-17,80.5h18l4.5-21.5l19.5,0.5c20.5-1.8,26.5-12.5,26.5-12.5
	C529.1,90.5,529.3,75,529.3,75z M504.8,89c0,0-3.5,5.8-10,6h-14.5l5.5-28l16,0.5c0,0,7,0,6.5,7.5C508.3,75,508.6,85,504.8,89z"/>
<path class="st16" d="M408.3,28.7h17l-3.7,21l25.3,1c0,0,14-1,14.7,10.7l-10,48h-16.3l7-34c0,0,4-12.7-6-12.7H419l-9.3,46.3
	l-17.3,0.3L408.3,28.7z"/>
</svg>
